<?xml version="1.0" standalone="no"?>
<!DOCTYPE svg PUBLIC "-//W3C//DTD SVG 20010904//EN"
 "http://www.w3.org/TR/2001/REC-SVG-20010904/DTD/svg10.dtd">
<svg version="1.0" xmlns="http://www.w3.org/2000/svg"
 width="836.000000pt" height="836.000000pt" viewBox="0 0 836.000000 836.000000"
 preserveAspectRatio="xMidYMid meet">
<metadata>
Created by potrace 1.16, written by Peter Selinger 2001-2019
</metadata>
<g transform="translate(0.000000,836.000000) scale(0.100000,-0.100000)"
fill="#000000" stroke="none">
<path d="M1524 8314 c-45 -7 -126 -28 -180 -45 -530 -170 -902 -631 -954
-1182 -8 -77 -10 -1035 -8 -3027 l3 -2915 27 -101 c48 -179 100 -296 198 -442
188 -282 477 -484 814 -568 149 -38 394 -45 557 -15 211 38 457 119 641 212
83 42 4455 2565 4578 2642 248 155 432 322 550 498 99 149 153 269 197 443 34
137 43 393 19 546 -29 186 -108 384 -219 550 -71 107 -305 337 -459 451 -102
76 -570 351 -2370 1389 -1234 712 -2285 1317 -2336 1344 -120 61 -349 158
-438 185 -173 51 -437 66 -620 35z m431 -569 c71 -20 227 -86 354 -150 51 -25
459 -257 907 -516 489 -282 819 -467 827 -463 6 4 79 54 160 112 81 57 149
103 151 101 2 -2 -100 -179 -225 -394 -126 -214 -259 -443 -296 -507 -38 -65
-72 -118 -78 -118 -5 1 -377 92 -825 205 -448 112 -816 202 -817 201 -2 -1
257 -392 576 -867 l578 -865 -212 -974 c-117 -536 -215 -990 -220 -1008 l-7
-33 751 376 c413 206 755 375 761 375 5 0 215 -186 467 -413 251 -226 510
-459 574 -517 67 -60 112 -108 105 -111 -6 -4 -157 -12 -336 -19 -240 -9 -332
-16 -353 -27 -15 -8 -550 -315 -1188 -684 -638 -368 -1199 -689 -1247 -713
-116 -58 -259 -111 -390 -143 -144 -36 -318 -38 -435 -5 -279 80 -486 288
-573 577 -18 57 -19 154 -21 1870 -2 996 1 2321 5 2945 l9 1135 22 70 c99 302
345 521 642 574 75 14 262 5 334 -14z m3738 -2097 c612 -352 1144 -663 1184
-689 95 -64 181 -135 276 -228 94 -91 134 -143 180 -237 112 -223 113 -485 3
-708 -76 -153 -164 -247 -359 -381 -84 -57 -1508 -887 -1514 -881 -1 1 -47
305 -102 676 -55 371 -102 685 -104 697 -3 16 76 112 340 412 188 215 343 394
343 398 0 5 -234 147 -519 317 l-518 308 -164 470 c-90 259 -165 474 -167 479
-2 5 -1 9 3 9 3 0 507 -289 1118 -642z"/>
</g>
</svg>
