<?xml version="1.0" standalone="no"?>
<!DOCTYPE svg PUBLIC "-//W3C//DTD SVG 20010904//EN"
 "http://www.w3.org/TR/2001/REC-SVG-20010904/DTD/svg10.dtd">
<svg version="1.0" xmlns="http://www.w3.org/2000/svg"
 width="1455.000000pt" height="1452.000000pt" viewBox="0 0 1455.000000 1452.000000"
 preserveAspectRatio="xMidYMid meet">
<metadata>
Created by potrace 1.16, written by Peter Selinger 2001-2019
</metadata>
<g transform="translate(0.000000,1452.000000) scale(0.100000,-0.100000)"
fill="#000000" stroke="none">
<path d="M2635 14029 c-757 -79 -1430 -551 -1760 -1234 -141 -290 -225 -631
-225 -912 l0 -73 3583 0 c4103 0 4397 -4 4752 -65 695 -121 1309 -439 1805
-935 511 -510 828 -1143 942 -1875 29 -188 36 -594 14 -804 -70 -657 -331
-1272 -757 -1783 -483 -577 -1159 -981 -1889 -1128 -324 -65 -256 -63 -1735
-70 -1492 -7 -1385 -2 -1573 -73 -342 -128 -589 -419 -678 -797 -15 -66 -18
-149 -21 -717 l-4 -643 1668 0 c1943 0 2109 5 2535 70 1326 205 2543 894 3411
1934 657 785 1087 1746 1231 2751 68 467 73 1016 15 1475 -78 619 -246 1187
-513 1735 -292 600 -658 1104 -1134 1566 -915 887 -2091 1428 -3357 1544 -367
34 -741 38 -3500 40 -1502 2 -2766 -1 -2810 -6z"/>
<path d="M2623 9589 c-515 -46 -975 -261 -1338 -624 -334 -334 -537 -737 -612
-1215 -17 -109 -18 -251 -18 -2575 0 -2729 -5 -2526 65 -2800 237 -941 1065
-1623 2031 -1672 l129 -6 2 2874 3 2874 27 98 c55 199 158 376 301 514 153
149 311 234 535 290 61 16 268 17 2467 22 l2400 6 100 28 c513 141 854 601
832 1122 -14 306 -127 559 -344 766 -150 143 -313 229 -541 286 -62 16 -290
17 -3007 19 -1617 1 -2981 -2 -3032 -7z"/>
</g>
</svg>
