<?xml version="1.0" standalone="no"?>
<!DOCTYPE svg PUBLIC "-//W3C//DTD SVG 20010904//EN"
 "http://www.w3.org/TR/2001/REC-SVG-20010904/DTD/svg10.dtd">
<svg version="1.0" xmlns="http://www.w3.org/2000/svg"
 width="128.000000pt" height="128.000000pt" viewBox="0 0 128.000000 128.000000"
 preserveAspectRatio="xMidYMid meet">
<metadata>
Created by potrace 1.16, written by Peter Selinger 2001-2019
</metadata>
<g transform="translate(0.000000,128.000000) scale(0.100000,-0.100000)"
fill="#000000" stroke="none">
<path d="M171 910 l-153 -269 49 -88 c47 -84 254 -445 258 -451 3 -3 37 54
201 334 63 108 114 199 114 204 0 4 -29 56 -63 116 -183 313 -240 410 -246
416 -3 4 -75 -114 -160 -262z"/>
<path d="M450 1173 c0 -3 62 -113 138 -244 l137 -239 102 0 102 0 -141 245
-141 245 -98 0 c-55 0 -99 -3 -99 -7z"/>
<path d="M762 1158 c46 -71 298 -509 298 -518 0 -8 -213 -379 -292 -507 l-20
-33 104 0 103 0 154 270 153 269 -58 104 c-33 57 -102 179 -154 270 l-95 167
-104 0 -103 0 14 -22z"/>
<path d="M706 557 c-138 -239 -256 -447 -256 -452 0 -3 44 -5 99 -5 l99 0 140
245 141 245 -102 0 -102 0 -19 -33z"/>
</g>
</svg>
