<?xml version="1.0" standalone="no"?>
<!DOCTYPE svg PUBLIC "-//W3C//DTD SVG 20010904//EN"
 "http://www.w3.org/TR/2001/REC-SVG-20010904/DTD/svg10.dtd">
<svg version="1.0" xmlns="http://www.w3.org/2000/svg"
 width="604.000000pt" height="604.000000pt" viewBox="0 0 604.000000 604.000000"
 preserveAspectRatio="xMidYMid meet">
<metadata>
Created by potrace 1.16, written by Peter Selinger 2001-2019
</metadata>
<g transform="translate(0.000000,604.000000) scale(0.100000,-0.100000)"
fill="#000000" stroke="none">
<path d="M666 5915 c-133 -54 -210 -161 -227 -312 -10 -96 -73 -4832 -67
-5078 3 -138 5 -155 30 -207 34 -73 103 -142 176 -176 67 -31 198 -42 266 -22
23 6 1062 577 2310 1268 1681 932 2282 1269 2320 1304 30 26 64 71 81 105 28
54 30 66 30 168 0 96 -3 116 -24 159 -57 114 46 50 -2346 1462 -1227 725
-2251 1325 -2278 1336 -71 27 -195 24 -271 -7z m2159 -1972 c897 -530 1629
-966 1628 -969 -2 -6 -3326 -1853 -3330 -1850 -1 0 9 768 23 1706 13 938 24
1792 24 1898 0 152 3 192 13 185 6 -4 746 -441 1642 -970z"/>
</g>
</svg>
