<?xml version="1.0" standalone="no"?>
<!DOCTYPE svg PUBLIC "-//W3C//DTD SVG 20010904//EN"
 "http://www.w3.org/TR/2001/REC-SVG-20010904/DTD/svg10.dtd">
<svg version="1.0" xmlns="http://www.w3.org/2000/svg"
 width="356.000000pt" height="356.000000pt" viewBox="0 0 356.000000 356.000000"
 preserveAspectRatio="xMidYMid meet">
<metadata>
Created by potrace 1.16, written by Peter Selinger 2001-2019
</metadata>
<g transform="translate(0.000000,356.000000) scale(0.100000,-0.100000)"
fill="#000000" stroke="none">
<path d="M1575 3554 c-11 -3 -56 -12 -100 -20 -336 -64 -684 -280 -900 -559
-220 -285 -325 -590 -325 -944 0 -583 321 -1102 845 -1366 150 -75 193 -73
176 10 -5 22 -14 79 -21 127 l-12 87 -56 32 c-321 181 -536 457 -629 809 -25
97 -27 120 -27 295 -1 143 4 208 16 265 144 635 728 1066 1357 1001 543 -56
967 -421 1109 -954 25 -95 26 -117 26 -302 0 -177 -2 -210 -23 -290 -91 -348
-299 -628 -595 -801 -72 -41 -86 -54 -90 -79 -34 -212 -34 -248 2 -253 29 -4
181 69 287 138 440 288 695 761 695 1287 0 242 -52 468 -152 667 -163 323
-402 559 -721 711 -234 111 -349 136 -632 141 -115 1 -219 1 -230 -2z"/>
<path d="M1629 3045 c-111 -18 -183 -41 -285 -91 -267 -127 -460 -359 -550
-659 -24 -81 -27 -106 -27 -255 -1 -138 3 -179 21 -247 31 -120 75 -219 142
-320 53 -80 171 -210 227 -248 34 -23 60 -5 68 47 4 24 18 70 31 104 13 33 24
68 24 78 0 10 -19 36 -41 59 -276 280 -279 742 -7 1032 73 79 133 124 224 169
95 46 168 65 276 73 314 20 610 -156 737 -439 54 -119 65 -172 65 -313 0 -114
-3 -141 -27 -215 -36 -113 -94 -216 -167 -294 -33 -35 -60 -67 -60 -72 0 -5
11 -31 25 -59 13 -27 27 -72 31 -99 9 -62 35 -92 67 -75 33 18 144 127 192
189 101 131 174 302 201 470 49 301 -49 619 -261 849 -229 246 -584 370 -906
316z"/>
<path d="M1688 2541 c-67 -14 -171 -73 -226 -128 -216 -216 -151 -585 127
-721 75 -36 78 -37 196 -37 116 0 122 1 190 34 218 107 318 362 227 581 -44
108 -148 208 -262 251 -60 23 -190 33 -252 20z"/>
<path d="M1602 1515 c-122 -30 -202 -90 -246 -184 -19 -41 -21 -62 -19 -201 2
-151 17 -282 74 -630 49 -300 69 -371 123 -425 58 -58 114 -75 243 -75 121 0
173 11 228 49 84 57 106 141 195 731 25 170 43 394 35 450 -22 161 -108 249
-280 286 -76 17 -283 16 -353 -1z"/>
</g>
</svg>
