<?xml version="1.0" standalone="no"?>
<!DOCTYPE svg PUBLIC "-//W3C//DTD SVG 20010904//EN"
 "http://www.w3.org/TR/2001/REC-SVG-20010904/DTD/svg10.dtd">
<svg version="1.0" xmlns="http://www.w3.org/2000/svg"
 width="240.000000pt" height="240.000000pt" viewBox="0 0 240.000000 240.000000"
 preserveAspectRatio="xMidYMid meet">
<metadata>
Created by potrace 1.16, written by Peter Selinger 2001-2019
</metadata>
<g transform="translate(0.000000,240.000000) scale(0.100000,-0.100000)"
fill="#000000" stroke="none">
<path d="M1877 2225 c-157 -43 -306 -166 -407 -335 -39 -66 -96 -197 -88 -205
2 -2 26 2 53 10 71 22 173 19 212 -5 95 -58 86 -212 -23 -420 -64 -120 -144
-237 -204 -298 -76 -78 -118 -81 -163 -13 -61 92 -111 286 -177 684 -55 331
-78 403 -154 485 -52 57 -101 77 -186 77 -63 -1 -84 -5 -130 -29 -110 -57
-207 -133 -467 -369 l-143 -129 53 -68 c28 -38 55 -69 59 -69 4 -1 42 21 84
49 190 124 230 60 423 -655 111 -413 173 -570 269 -676 103 -115 218 -126 397
-38 234 114 540 425 790 803 227 343 338 634 322 841 -15 180 -97 300 -242
354 -65 25 -200 27 -278 6z"/>
</g>
</svg>
