<?xml version="1.0" standalone="no"?>
<!DOCTYPE svg PUBLIC "-//W3C//DTD SVG 20010904//EN"
 "http://www.w3.org/TR/2001/REC-SVG-20010904/DTD/svg10.dtd">
<svg version="1.0" xmlns="http://www.w3.org/2000/svg"
 width="225.000000pt" height="225.000000pt" viewBox="0 0 225.000000 225.000000"
 preserveAspectRatio="xMidYMid meet">
<metadata>
Created by potrace 1.16, written by Peter Selinger 2001-2019
</metadata>
<g transform="translate(0.000000,225.000000) scale(0.100000,-0.100000)"
fill="#000000" stroke="none">
<path d="M720 2151 c-44 -14 -93 -43 -128 -76 -28 -26 -46 -34 -92 -38 -32 -4
-71 -12 -86 -19 -33 -14 -103 -65 -121 -88 -28 -35 -84 -151 -98 -206 -63
-239 -72 -791 -16 -1069 33 -167 106 -300 194 -353 18 -11 59 -26 92 -33 52
-11 66 -19 110 -65 65 -69 126 -96 231 -102 134 -7 257 29 489 144 72 35 137
69 145 74 8 4 56 32 105 61 282 165 464 318 535 450 41 78 51 172 26 249 -15
46 -15 55 -1 96 44 130 -5 264 -147 401 -72 70 -172 153 -183 153 -4 0 -13 6
-21 14 -8 8 -65 46 -127 84 -371 229 -624 333 -804 331 -43 0 -89 -4 -103 -8z
m290 -97 c109 -35 301 -122 405 -184 28 -17 59 -35 70 -40 11 -6 29 -16 40
-22 11 -7 47 -30 80 -50 321 -200 476 -384 441 -524 l-7 -27 -21 29 c-67 92
-365 318 -593 450 -185 108 -430 234 -451 234 -4 0 -25 9 -48 19 -47 22 -160
63 -226 81 l-45 12 24 17 c78 53 175 54 331 5z m-508 -89 c3 -3 -8 -42 -23
-87 -61 -175 -89 -401 -89 -733 0 -341 27 -586 80 -739 12 -32 20 -62 18 -66
-6 -18 -108 42 -141 84 -50 61 -102 214 -116 346 -33 297 -21 716 24 896 41
160 100 250 188 286 48 19 52 20 59 13z m422 -165 c119 -18 319 -96 441 -175
31 -19 59 -35 64 -35 5 0 11 -3 13 -7 2 -5 23 -21 48 -38 57 -39 180 -161 217
-217 51 -77 58 -98 58 -177 0 -70 -3 -80 -35 -126 -19 -27 -39 -55 -45 -61 -5
-6 -26 -30 -45 -54 -53 -64 -265 -240 -289 -240 -6 0 -11 -4 -11 -10 0 -5 -4
-10 -9 -10 -5 0 -45 -22 -88 -48 -154 -94 -295 -142 -420 -142 -95 0 -138 16
-189 72 -59 63 -82 117 -126 283 -21 81 -23 112 -23 315 0 234 7 284 61 449
32 95 118 194 185 211 24 6 49 13 54 15 18 7 70 5 139 -5z m1122 -842 c-3 -36
-16 -76 -31 -101 -36 -62 -139 -166 -230 -235 -72 -53 -246 -167 -285 -185 -8
-4 -42 -23 -75 -42 -245 -142 -465 -225 -597 -225 -81 0 -130 16 -174 56 -40
37 -41 35 46 54 70 16 204 60 322 106 110 43 386 179 471 232 116 72 315 207
363 247 66 55 174 165 174 179 0 6 6 2 12 -8 6 -11 8 -42 4 -78z"/>
<path d="M884 1376 c-7 -19 0 -473 8 -481 9 -9 58 15 203 99 176 101 225 134
225 151 0 12 -99 85 -115 85 -3 0 -38 20 -78 43 -115 70 -205 117 -222 117 -9
0 -18 -6 -21 -14z"/>
</g>
</svg>
