<?xml version="1.0" standalone="no"?>
<!DOCTYPE svg PUBLIC "-//W3C//DTD SVG 20010904//EN"
 "http://www.w3.org/TR/2001/REC-SVG-20010904/DTD/svg10.dtd">
<svg version="1.0" xmlns="http://www.w3.org/2000/svg"
 width="2000.000000pt" height="2000.000000pt" viewBox="0 0 2000.000000 2000.000000"
 preserveAspectRatio="xMidYMid meet">
<metadata>
Created by potrace 1.16, written by Peter Selinger 2001-2019
</metadata>
<g transform="translate(0.000000,2000.000000) scale(0.100000,-0.100000)"
fill="#000000" stroke="none">
<path d="M5128 14077 l-5127 -3172 2 -1658 2 -1659 4894 -2419 c2691 -1330
4900 -2419 4907 -2419 7 0 2196 1337 4864 2971 2668 1634 4854 2968 4857 2965
3 -3 -13 -119 -35 -258 -22 -139 -39 -254 -38 -255 2 -3 351 -61 352 -59 4 3
194 1206 194 1225 0 11 -3 21 -6 21 -4 0 -274 45 -601 100 -328 56 -597 99
-600 96 -8 -8 -60 -341 -54 -347 3 -3 110 -23 236 -44 127 -21 234 -41 238
-45 4 -4 -117 -83 -270 -177 -153 -94 -784 -481 -1403 -860 -619 -380 -2618
-1606 -4443 -2726 l-3318 -2035 -282 138 c-155 77 -2242 1109 -4637 2294
l-4355 2155 -3 1354 -2 1354 4900 3031 4900 3031 4393 -2119 4392 -2119 3
-199 2 -199 -4652 -2858 c-2559 -1572 -4657 -2858 -4663 -2858 -5 1 -1081 528
-2390 1173 -1309 645 -2954 1455 -3655 1800 l-1275 628 -6 -36 c-4 -21 -9
-148 -12 -283 l-5 -247 3685 -1807 c3588 -1761 3685 -1807 3713 -1794 15 8
2218 1360 4894 3004 l4865 2990 -2 503 -2 504 -4649 2244 c-2558 1234 -4657
2244 -4665 2243 -9 0 -2323 -1427 -5143 -3172z"/>
</g>
</svg>
