<?xml version="1.0" standalone="no"?>
<!DOCTYPE svg PUBLIC "-//W3C//DTD SVG 20010904//EN"
 "http://www.w3.org/TR/2001/REC-SVG-20010904/DTD/svg10.dtd">
<svg version="1.0" xmlns="http://www.w3.org/2000/svg"
 width="225.000000pt" height="225.000000pt" viewBox="0 0 225.000000 225.000000"
 preserveAspectRatio="xMidYMid meet">
<metadata>
Created by potrace 1.16, written by Peter Selinger 2001-2019
</metadata>
<g transform="translate(0.000000,225.000000) scale(0.100000,-0.100000)"
fill="#000000" stroke="none">
<path d="M905 2170 c-403 -82 -712 -371 -823 -768 -24 -89 -27 -112 -27 -272
1 -150 4 -187 23 -258 18 -65 73 -208 88 -230 2 -3 136 113 272 234 l24 21
-18 69 c-24 90 -24 247 0 332 48 178 157 323 319 425 15 10 64 32 110 49 77
30 90 32 222 32 150 1 194 -7 302 -55 l63 -28 149 123 149 124 -41 29 c-96 68
-230 128 -364 164 -111 30 -325 34 -448 9z"/>
<path d="M2115 1109 c-22 -4 -89 -17 -150 -29 -60 -12 -126 -24 -146 -27 -35
-5 -37 -7 -42 -52 -13 -109 -98 -264 -197 -362 -122 -119 -267 -180 -445 -187
-200 -7 -355 51 -497 186 l-77 73 -187 -38 c-103 -22 -189 -44 -191 -50 -6
-17 91 -153 159 -223 415 -430 1083 -440 1505 -22 81 80 104 107 151 183 56
88 97 180 127 286 26 89 49 253 37 264 -4 3 -25 2 -47 -2z"/>
</g>
</svg>
