<?xml version="1.0" standalone="no"?>
<!DOCTYPE svg PUBLIC "-//W3C//DTD SVG 20010904//EN"
 "http://www.w3.org/TR/2001/REC-SVG-20010904/DTD/svg10.dtd">
<svg version="1.0" xmlns="http://www.w3.org/2000/svg"
 width="320.000000pt" height="320.000000pt" viewBox="0 0 320.000000 320.000000"
 preserveAspectRatio="xMidYMid meet">
<metadata>
Created by potrace 1.16, written by Peter Selinger 2001-2019
</metadata>
<g transform="translate(0.000000,320.000000) scale(0.100000,-0.100000)"
fill="#000000" stroke="none">
<path d="M329 2151 c-23 -24 -29 -38 -29 -74 0 -97 108 -144 179 -78 26 24 31
36 31 76 0 38 -5 52 -29 76 -24 24 -38 29 -76 29 -38 0 -52 -5 -76 -29z"/>
<path d="M1379 2151 c-24 -24 -29 -38 -29 -76 0 -40 5 -52 31 -76 45 -42 105
-41 148 2 25 25 31 39 31 76 0 36 -6 50 -29 74 -24 24 -38 29 -76 29 -38 0
-52 -5 -76 -29z"/>
<path d="M1968 2153 c-34 -37 -42 -75 -24 -117 18 -44 51 -66 99 -66 31 0 46
7 73 34 38 38 44 77 19 126 -20 38 -43 50 -97 50 -35 0 -49 -6 -70 -27z"/>
<path d="M2564 2162 c-55 -44 -59 -109 -10 -158 27 -27 42 -34 74 -34 51 0 99
37 108 85 8 42 0 66 -33 99 -20 21 -35 26 -72 26 -28 0 -54 -7 -67 -18z"/>
<path d="M2015 1871 c-11 -5 -27 -17 -36 -27 -9 -11 -57 -144 -106 -296 l-90
-278 -92 281 c-53 162 -101 289 -112 300 -26 26 -83 25 -109 -1 -11 -11 -20
-33 -20 -51 0 -28 224 -681 251 -732 18 -33 40 -46 80 -47 25 0 42 7 58 24 13
14 55 119 107 272 46 137 87 256 90 264 3 8 47 -105 97 -252 51 -146 101 -276
111 -287 24 -26 85 -28 115 -3 15 12 61 129 151 386 72 203 130 376 130 383 0
8 -11 25 -25 38 -30 31 -84 34 -110 5 -9 -10 -59 -146 -109 -300 l-92 -281
-92 284 c-51 159 -100 291 -109 300 -23 20 -63 28 -88 18z"/>
<path d="M22 1847 c-22 -23 -22 -27 -22 -404 0 -368 1 -380 20 -398 28 -26 75
-23 105 5 l25 23 0 249 0 249 103 -153 c56 -83 110 -157 119 -162 40 -24 69 4
176 163 l102 153 0 -245 c0 -243 0 -246 23 -273 33 -37 81 -37 114 0 l23 27 0
368 0 368 -25 27 c-27 29 -88 36 -117 14 -9 -7 -73 -102 -142 -211 l-125 -199
-27 44 c-172 274 -229 360 -244 368 -34 18 -85 12 -108 -13z"/>
<path d="M1108 1667 c-89 -25 -157 -88 -201 -185 -30 -66 -30 -207 0 -273 31
-68 90 -128 158 -161 50 -23 73 -28 140 -28 67 0 90 5 141 29 61 29 104 70
104 100 0 28 -30 61 -56 61 -13 0 -48 -13 -77 -30 -114 -64 -246 -24 -272 83
l-7 27 197 0 c109 0 204 4 215 10 43 23 43 126 0 215 -25 51 -97 120 -146 141
-50 21 -142 26 -196 11z m157 -141 c26 -17 65 -84 65 -111 0 -13 -21 -15 -145
-15 -163 0 -163 0 -123 71 40 72 137 98 203 55z"/>
<path d="M2813 1662 c-143 -51 -221 -176 -211 -341 7 -122 72 -221 177 -273
39 -19 62 -23 146 -23 92 0 104 2 152 29 29 16 60 37 69 48 23 25 22 77 -1 94
-22 16 -71 18 -80 4 -16 -25 -86 -50 -143 -50 -74 0 -118 26 -150 90 l-22 45
202 3 c193 2 203 3 226 25 22 20 24 28 20 87 -6 75 -39 148 -90 197 -74 71
-200 99 -295 65z m153 -128 c35 -17 68 -60 79 -106 l7 -28 -150 0 -151 0 11
33 c34 98 119 141 204 101z"/>
</g>
</svg>
