<?xml version="1.0" standalone="no"?>
<!DOCTYPE svg PUBLIC "-//W3C//DTD SVG 20010904//EN"
 "http://www.w3.org/TR/2001/REC-SVG-20010904/DTD/svg10.dtd">
<svg version="1.0" xmlns="http://www.w3.org/2000/svg"
 width="476.000000pt" height="476.000000pt" viewBox="0 0 476.000000 476.000000"
 preserveAspectRatio="xMidYMid meet">
<metadata>
Created by potrace 1.16, written by Peter Selinger 2001-2019
</metadata>
<g transform="translate(0.000000,476.000000) scale(0.100000,-0.100000)"
fill="#000000" stroke="none">
<path d="M2345 4739 c-177 -19 -374 -85 -525 -175 -97 -58 -233 -181 -296
-270 -93 -130 -140 -324 -131 -539 7 -162 31 -292 103 -560 55 -208 56 -210
38 -242 -27 -52 -99 -89 -290 -152 -353 -115 -685 -314 -942 -565 -85 -83
-120 -125 -143 -172 -75 -152 -37 -336 98 -472 72 -73 131 -103 219 -110 129
-10 265 59 482 245 226 193 272 223 477 313 66 29 164 71 218 95 l98 43 13
-21 c49 -79 369 -639 409 -717 56 -108 69 -188 47 -279 -26 -108 -124 -215
-219 -241 -20 -5 -108 -14 -196 -20 -224 -14 -300 -37 -384 -115 -195 -183
-106 -566 161 -692 123 -59 169 -68 328 -68 170 1 260 20 520 112 189 67 251
99 330 170 137 125 220 286 290 565 30 120 31 125 28 341 l-3 219 29 25 c26
22 37 25 86 21 124 -9 252 -108 327 -253 71 -139 123 -338 123 -479 0 -94 31
-238 65 -306 50 -101 129 -164 218 -176 107 -15 327 38 445 107 83 49 203 171
238 244 46 96 44 103 -99 385 -156 307 -163 324 -193 481 -38 198 -89 335
-170 462 -55 86 -202 231 -334 332 -164 124 -204 185 -180 275 9 35 25 57 73
100 257 227 598 622 682 789 49 98 111 285 130 395 19 114 20 304 0 379 -48
183 -191 317 -338 317 -92 0 -134 -17 -199 -82 -82 -82 -117 -163 -189 -439
-72 -278 -99 -339 -189 -430 -81 -82 -154 -114 -240 -106 -106 10 -103 6 -134
169 -98 513 -202 774 -373 939 -145 139 -287 184 -508 158z m311 -310 c76 -28
135 -88 191 -194 92 -176 131 -357 103 -489 -10 -51 -19 -66 -73 -120 -123
-122 -296 -184 -542 -193 -177 -7 -229 6 -304 73 -91 82 -136 210 -135 384 1
149 32 245 113 348 66 84 226 178 341 201 30 6 64 13 75 15 43 10 174 -4 231
-25z"/>
<path d="M2628 4299 c-25 -14 -23 -66 3 -109 35 -57 54 -63 93 -27 l26 22 -19
42 c-21 46 -54 83 -73 83 -7 0 -21 -5 -30 -11z"/>
<path d="M2740 3986 c-8 -11 -10 -27 -5 -48 4 -18 9 -67 10 -108 3 -63 7 -77
26 -93 23 -19 63 -17 84 4 6 6 10 53 10 104 -1 80 -4 99 -21 122 -25 33 -83
43 -104 19z"/>
</g>
</svg>
