<?xml version="1.0" standalone="no"?>
<!DOCTYPE svg PUBLIC "-//W3C//DTD SVG 20010904//EN"
 "http://www.w3.org/TR/2001/REC-SVG-20010904/DTD/svg10.dtd">
<svg version="1.0" xmlns="http://www.w3.org/2000/svg"
 width="554.000000pt" height="554.000000pt" viewBox="0 0 554.000000 554.000000"
 preserveAspectRatio="xMidYMid meet">
<metadata>
Created by potrace 1.16, written by Peter Selinger 2001-2019
</metadata>
<g transform="translate(0.000000,554.000000) scale(0.100000,-0.100000)"
fill="#000000" stroke="none">
<path d="M1910 5013 c-60 -4 -325 -42 -342 -48 -10 -4 -13 -82 -13 -388 0
-856 -97 -1560 -290 -2117 -124 -357 -280 -649 -466 -873 l-73 -87 -363 0
-363 0 0 -28 c0 -17 94 -218 230 -495 l230 -467 2321 2 2321 3 219 488 c120
269 219 492 219 498 0 5 -127 9 -321 9 -300 0 -320 1 -315 18 3 9 12 80 20
157 106 993 -159 1856 -759 2474 -154 158 -275 260 -450 376 -411 274 -855
429 -1360 475 -102 9 -341 11 -445 3z m820 -778 c762 -177 1348 -845 1501
-1710 27 -152 37 -466 20 -616 -14 -120 -44 -283 -66 -357 l-16 -52 -774 0
-775 0 0 1375 0 1375 23 0 c12 0 51 -7 87 -15z"/>
</g>
</svg>
