<?xml version="1.0" standalone="no"?>
<!DOCTYPE svg PUBLIC "-//W3C//DTD SVG 20010904//EN"
 "http://www.w3.org/TR/2001/REC-SVG-20010904/DTD/svg10.dtd">
<svg version="1.0" xmlns="http://www.w3.org/2000/svg"
 width="361.000000pt" height="361.000000pt" viewBox="0 0 361.000000 361.000000"
 preserveAspectRatio="xMidYMid meet">
<metadata>
Created by potrace 1.16, written by Peter Selinger 2001-2019
</metadata>
<g transform="translate(0.000000,361.000000) scale(0.100000,-0.100000)"
fill="#000000" stroke="none">
<path d="M2340 2120 l0 -840 185 0 185 0 0 46 0 46 39 -31 c146 -116 335 -131
518 -41 190 94 301 272 311 500 8 189 -45 330 -172 456 -117 117 -232 160
-405 152 -111 -5 -182 -32 -250 -93 l-41 -37 0 341 0 341 -185 0 -185 0 0
-840z m720 -61 c119 -54 177 -183 138 -311 -15 -51 -82 -126 -133 -149 -50
-23 -152 -25 -203 -4 -49 21 -110 80 -133 130 -39 83 -17 208 49 279 67 72
192 96 282 55z"/>
<path d="M1725 2408 c-51 -4 -127 -18 -175 -33 -81 -26 -160 -62 -160 -74 1
-19 109 -256 116 -254 5 1 43 15 84 29 95 35 214 39 272 10 40 -19 72 -61 84
-110 7 -28 6 -29 -22 -22 -106 23 -198 29 -277 18 -152 -20 -256 -72 -324
-161 -103 -134 -75 -344 62 -470 79 -71 144 -94 270 -95 117 0 185 21 253 80
l42 36 0 -41 0 -41 185 0 185 0 0 347 c0 381 -5 422 -62 536 -92 184 -269 265
-533 245z m162 -679 c69 -12 71 -15 51 -80 -26 -88 -125 -159 -202 -145 -78
15 -123 90 -96 157 28 67 114 91 247 68z"/>
<path d="M426 2399 c-187 -46 -354 -223 -402 -427 -23 -99 -15 -254 19 -351
51 -145 148 -256 282 -322 182 -89 371 -73 518 43 l40 32 -5 -80 c-8 -132 -60
-218 -161 -271 -99 -50 -247 -39 -364 27 l-52 30 -29 -53 c-16 -28 -49 -89
-73 -134 -43 -81 -43 -82 -24 -103 29 -32 170 -96 252 -114 93 -21 254 -20
346 0 229 51 383 201 453 439 16 54 18 123 21 663 l4 602 -183 -2 -183 -3 -3
-48 -3 -48 -41 36 c-72 66 -137 88 -263 91 -60 2 -127 -1 -149 -7z m304 -340
c95 -43 150 -129 150 -234 0 -73 -23 -126 -76 -177 -52 -49 -100 -68 -176 -68
-80 0 -132 24 -184 83 -143 163 -30 417 186 417 34 0 72 -8 100 -21z"/>
</g>
</svg>
