<?xml version="1.0" standalone="no"?>
<!DOCTYPE svg PUBLIC "-//W3C//DTD SVG 20010904//EN"
 "http://www.w3.org/TR/2001/REC-SVG-20010904/DTD/svg10.dtd">
<svg version="1.0" xmlns="http://www.w3.org/2000/svg"
 width="720.000000pt" height="720.000000pt" viewBox="0 0 720.000000 720.000000"
 preserveAspectRatio="xMidYMid meet">
<metadata>
Created by potrace 1.16, written by Peter Selinger 2001-2019
</metadata>
<g transform="translate(0.000000,720.000000) scale(0.100000,-0.100000)"
fill="#000000" stroke="none">
<path d="M2290 6325 c-343 -63 -646 -244 -861 -513 -155 -193 -266 -456 -300
-707 -7 -49 -13 -91 -14 -92 0 -1 -52 49 -116 110 -63 62 -164 150 -224 197
-116 91 -412 290 -430 290 -6 0 -25 -44 -44 -97 -72 -211 -221 -547 -276 -626
-19 -27 -19 -33 -1 -40 8 -3 117 -24 243 -47 370 -67 577 -122 707 -187 60
-30 59 -31 -89 -78 -210 -66 -424 -115 -720 -165 -72 -12 -136 -24 -143 -26
-8 -2 14 -55 66 -161 84 -167 159 -346 212 -503 17 -52 33 -97 35 -99 7 -6
115 58 240 143 166 112 300 221 432 349 l112 110 4 -1054 c3 -1027 3 -1056 24
-1144 67 -288 186 -508 383 -705 194 -195 412 -318 684 -387 99 -25 109 -25
651 -34 673 -11 2432 -4 2528 11 216 33 425 113 607 235 98 66 256 218 336
325 79 104 184 314 219 435 57 199 55 146 55 1735 0 1590 2 1537 -55 1735 -15
50 -50 141 -80 202 -188 393 -513 656 -960 776 l-80 21 -1535 2 c-1267 2
-1548 0 -1610 -11z m3230 -1018 c270 -78 477 -242 590 -467 99 -196 110 -278
110 -795 -1 -593 -10 -676 -100 -860 -113 -231 -305 -398 -545 -471 -84 -26
-102 -28 -275 -28 -169 0 -194 2 -286 26 -245 65 -474 186 -641 339 -193 178
-326 241 -507 240 -175 0 -295 -59 -491 -239 -222 -205 -506 -337 -799 -373
-317 -38 -583 49 -796 261 -127 127 -194 242 -242 418 -20 73 -21 105 -25 585
-5 560 -1 625 48 771 109 330 398 560 774 615 33 5 737 8 1575 7 l1515 -1 95
-28z"/>
<path d="M2511 4807 c-82 -42 -87 -171 -8 -221 13 -9 100 -22 222 -35 110 -12
218 -23 240 -26 123 -15 360 -35 426 -35 63 0 79 3 98 21 59 55 53 174 -11
206 -33 17 -114 27 -517 68 -392 39 -416 40 -450 22z"/>
<path d="M5049 4816 c-4 -4 -113 -16 -428 -46 -309 -29 -361 -39 -393 -71 -23
-23 -28 -36 -28 -79 0 -56 20 -104 49 -120 33 -17 265 -6 516 25 22 3 130 14
240 26 216 23 238 30 261 86 27 65 7 141 -45 167 -27 14 -160 23 -172 12z"/>
<path d="M2899 4376 c-193 -54 -312 -228 -287 -421 11 -86 58 -174 123 -234
75 -68 144 -93 257 -94 78 0 93 3 152 32 86 42 150 106 189 189 29 60 32 77
32 157 0 77 -4 98 -27 148 -52 110 -134 182 -246 217 -72 23 -126 24 -193 6z"/>
<path d="M4650 4377 c-155 -45 -265 -165 -289 -314 -25 -160 66 -330 217 -405
69 -34 214 -38 295 -8 80 30 167 112 209 198 30 60 32 73 32 156 -1 58 -7 107
-18 135 -36 97 -133 190 -236 226 -63 22 -156 27 -210 12z"/>
</g>
</svg>
